<svg xmlns="http://www.w3.org/2000/svg" viewBox="0 0 255.74 38.19"><defs><style>.cls-1{fill:#fff;}</style></defs><g id="Camada_2" data-name="Camada 2"><g id="l"><path class="cls-1" d="M0,5.65A4.45,4.45,0,0,1,.24,4.11,3.29,3.29,0,0,1,.87,3a2.62,2.62,0,0,1,.88-.64,3.9,3.9,0,0,1,1-.3c.27-.06.59-.11,1-.16s.82-.1,1.37-.15,1.23-.07,2-.1,1.75,0,2.88,0a19,19,0,0,1,6.05.83,10.79,10.79,0,0,1,3.89,2.18A7.71,7.71,0,0,1,22,7.76a10.64,10.64,0,0,1,.63,3.61A10.76,10.76,0,0,1,22,15.29a7.7,7.7,0,0,1-2.14,3,10,10,0,0,1-3.73,2,18.43,18.43,0,0,1-5.42.7c-.49,0-1,0-1.41,0L8,20.89a9,9,0,0,1-.95-.1l-.51-.06v9H0ZM6.57,15l1,.15a20.19,20.19,0,0,0,2.32.1,10.75,10.75,0,0,0,3-.35,4.91,4.91,0,0,0,1.79-.9,2.85,2.85,0,0,0,.87-1.27,4.64,4.64,0,0,0,.22-1.4A5.24,5.24,0,0,0,15.59,10a2.73,2.73,0,0,0-.79-1.27,4.64,4.64,0,0,0-1.75-1A10.29,10.29,0,0,0,10,7.42c-.94,0-1.71,0-2.3.06s-1,.08-1.09.1Z"/><path class="cls-1" d="M23.71,19.44a10.39,10.39,0,0,1,.89-4.31A10.52,10.52,0,0,1,27,11.7a11.54,11.54,0,0,1,3.61-2.28,12.21,12.21,0,0,1,8.85,0,11.3,11.3,0,0,1,3.63,2.28,10.37,10.37,0,0,1,2.44,3.43,10.23,10.23,0,0,1,.89,4.31,10.31,10.31,0,0,1-.89,4.32,10.44,10.44,0,0,1-2.44,3.42,11.3,11.3,0,0,1-3.63,2.28,12.21,12.21,0,0,1-8.85,0A11.54,11.54,0,0,1,27,27.18a10.58,10.58,0,0,1-2.44-3.42A10.47,10.47,0,0,1,23.71,19.44Zm11.38,5A4.63,4.63,0,0,0,37,24.1a4.92,4.92,0,0,0,1.52-1.05,4.31,4.31,0,0,0,1-1.59,6,6,0,0,0,0-4,4.39,4.39,0,0,0-1-1.59A4.92,4.92,0,0,0,37,14.78a4.87,4.87,0,0,0-3.77,0,5,5,0,0,0-1.49,1.05,4.55,4.55,0,0,0-1,1.59,6.17,6.17,0,0,0,0,4,4.46,4.46,0,0,0,1,1.59,5,5,0,0,0,1.49,1.05A4.67,4.67,0,0,0,35.09,24.48Z"/><path class="cls-1" d="M48.88,16.82a8.62,8.62,0,0,1,.67-3.51,7.3,7.3,0,0,1,1.83-2.58,7.75,7.75,0,0,1,2.83-1.59,11.31,11.31,0,0,1,3.62-.55,10.81,10.81,0,0,1,3.78.53,5.56,5.56,0,0,1,2,1.12,3.72,3.72,0,0,1,.57.85,2.62,2.62,0,0,1,.2,1.05,3.48,3.48,0,0,1-.18,1.13,4,4,0,0,1-.45.93,5.23,5.23,0,0,1-.5.68c-.16.19-.28.33-.36.41a11.09,11.09,0,0,0-1.66-.61A7.54,7.54,0,0,0,59,14.4a4,4,0,0,0-2.6.89,3.63,3.63,0,0,0-1.07,2.94V29.72H48.88Z"/><path class="cls-1" d="M65.62,6a2.51,2.51,0,0,1,.93-2.22A4.19,4.19,0,0,1,69,3.11a6.76,6.76,0,0,1,2,.26l1.13.34V9.16h4.64a3.72,3.72,0,0,1,2.58.72,2.88,2.88,0,0,1,.77,2.18,5.72,5.72,0,0,1-.33,2,8.53,8.53,0,0,1-.48,1.19H72.11v6.33A3.31,3.31,0,0,0,72.39,23a2.68,2.68,0,0,0,.71.87,2.3,2.3,0,0,0,1,.42,6.3,6.3,0,0,0,3.16-.24,8.78,8.78,0,0,0,1.33-.59l2.54,4.44a6.67,6.67,0,0,1-1,.73,11.39,11.39,0,0,1-1.66.76,16.35,16.35,0,0,1-2.18.63,12.22,12.22,0,0,1-2.54.26,8.33,8.33,0,0,1-5.92-2A6.94,6.94,0,0,1,65.62,23Z"/><path class="cls-1" d="M101.35,29.6a6.24,6.24,0,0,1-1.09.19L98.14,30c-.84.08-1.81.14-2.9.2s-2.24.08-3.45.08a20,20,0,0,1-5.08-.54,9.42,9.42,0,0,1-3.23-1.48,5.06,5.06,0,0,1-1.69-2.15,7.15,7.15,0,0,1-.48-2.61q0-3.71,2.38-5.3c1.58-1.06,4.1-1.59,7.54-1.59.86,0,1.58,0,2.16,0a12.21,12.21,0,0,1,1.43.12,2.59,2.59,0,0,0-1.15-2.22,6.82,6.82,0,0,0-3.81-.81,15.65,15.65,0,0,0-2.2.14,11.82,11.82,0,0,0-1.62.35,6.66,6.66,0,0,0-1.06.4,5.28,5.28,0,0,0-.57.32l-.32-.32A4.33,4.33,0,0,1,83.6,14a7.05,7.05,0,0,1-.44-.87A2.77,2.77,0,0,1,83,12.1q0-3.51,7.18-3.51A21.88,21.88,0,0,1,94.53,9a9.73,9.73,0,0,1,3.57,1.46,7.06,7.06,0,0,1,2.38,2.72,9.21,9.21,0,0,1,.87,4.23Zm-6.49-8.43A9.53,9.53,0,0,0,93.79,21c-.47,0-1.18-.06-2.12-.06a8.27,8.27,0,0,0-2,.2,3.16,3.16,0,0,0-1.18.55,1.8,1.8,0,0,0-.59.78,2.68,2.68,0,0,0-.16.93,2.73,2.73,0,0,0,.12.77,1.48,1.48,0,0,0,.52.72,3.42,3.42,0,0,0,1.21.55,8.26,8.26,0,0,0,2.14.22c.7,0,1.35,0,1.94-.06a7.56,7.56,0,0,0,1.17-.14Z"/><path class="cls-1" d="M104.78,2.86a2.5,2.5,0,0,1,.93-2.21A4.19,4.19,0,0,1,108.17,0a7.12,7.12,0,0,1,2,.26c.59.18,1,.29,1.13.35V29.72h-6.49Z"/><path class="cls-1" d="M145,18.51a16.89,16.89,0,0,1-.53,4.48,9.43,9.43,0,0,1-1.49,3.19A9.77,9.77,0,0,1,139,29.24a13,13,0,0,1-5.28,1.05,12.05,12.05,0,0,1-4.42-.79,10.49,10.49,0,0,1-3.53-2.2,10,10,0,0,1-2.34-3.42,11.48,11.48,0,0,1-.85-4.44,12.17,12.17,0,0,1,.79-4.46,10.42,10.42,0,0,1,2.14-3.4,9.42,9.42,0,0,1,3.16-2.2,9.55,9.55,0,0,1,3.88-.79,8.23,8.23,0,0,1,3.73.75,8.77,8.77,0,0,1,2.2,1.47v-8a2.5,2.5,0,0,1,.92-2.21A4.24,4.24,0,0,1,141.88,0a6.94,6.94,0,0,1,2,.26L145,.61Zm-11,5.81A4.53,4.53,0,0,0,137.22,23a4.73,4.73,0,0,0,1.32-3.55,5.5,5.5,0,0,0-.35-2,4.77,4.77,0,0,0-1-1.57,4.59,4.59,0,0,0-1.47-1,4.5,4.5,0,0,0-1.85-.38,4.36,4.36,0,0,0-3.33,1.39,5,5,0,0,0-1.31,3.57A4.81,4.81,0,0,0,130.57,23,4.45,4.45,0,0,0,133.9,24.32Z"/><path class="cls-1" d="M146.88,19.44a10.46,10.46,0,0,1,3.33-7.74,11.54,11.54,0,0,1,3.61-2.28,12.21,12.21,0,0,1,8.85,0,11.3,11.3,0,0,1,3.63,2.28,10.46,10.46,0,0,1,3.33,7.74,10.41,10.41,0,0,1-3.33,7.74,11.3,11.3,0,0,1-3.63,2.28,12.21,12.21,0,0,1-8.85,0,11.54,11.54,0,0,1-3.61-2.28,10.41,10.41,0,0,1-3.33-7.74Zm11.38,5a4.66,4.66,0,0,0,1.87-.38,4.87,4.87,0,0,0,1.51-1.05,4.46,4.46,0,0,0,1-1.59,6,6,0,0,0,0-4,4.55,4.55,0,0,0-1-1.59,4.87,4.87,0,0,0-1.51-1.05,4.87,4.87,0,0,0-3.77,0,5,5,0,0,0-1.49,1.05,4.55,4.55,0,0,0-1,1.59,6.17,6.17,0,0,0,0,4,4.46,4.46,0,0,0,1,1.59,5,5,0,0,0,1.49,1.05A4.67,4.67,0,0,0,158.26,24.48Z"/><path class="cls-1" d="M181.37,5.65a4.45,4.45,0,0,1,.24-1.54A3.46,3.46,0,0,1,182.23,3a2.66,2.66,0,0,1,.89-.64,3.9,3.9,0,0,1,1-.3,22,22,0,0,1,2.24-.31c1-.09,2.42-.14,4.33-.14a23.25,23.25,0,0,1,6.8.93,14.58,14.58,0,0,1,5.2,2.74,12.2,12.2,0,0,1,3.33,4.46,14.87,14.87,0,0,1,1.17,6.07,15.81,15.81,0,0,1-1.09,6,11.69,11.69,0,0,1-3.25,4.48,14.83,14.83,0,0,1-5.36,2.8,25.67,25.67,0,0,1-7.44,1q-4.56,0-6.56-.18c-1.33-.12-2.05-.2-2.15-.23Zm6.73,18.11c.16,0,.52.06,1.07.1s1.22.06,2,.06a13.6,13.6,0,0,0,3.67-.47A7.57,7.57,0,0,0,197.68,22a6.52,6.52,0,0,0,1.83-2.52,9.31,9.31,0,0,0,.65-3.63,10.1,10.1,0,0,0-.52-3.27A7,7,0,0,0,198,10a7.23,7.23,0,0,0-2.7-1.69,11.15,11.15,0,0,0-3.85-.61c-1.05,0-1.86,0-2.42.06a6,6,0,0,0-1,.11Z"/><path class="cls-1" d="M209,19.44a10.46,10.46,0,0,1,3.33-7.74A11.42,11.42,0,0,1,216,9.42a12.21,12.21,0,0,1,8.85,0,11.3,11.3,0,0,1,3.63,2.28,10.46,10.46,0,0,1,3.33,7.74,10.41,10.41,0,0,1-3.33,7.74,11.3,11.3,0,0,1-3.63,2.28,12.21,12.21,0,0,1-8.85,0,11.42,11.42,0,0,1-3.61-2.28A10.41,10.41,0,0,1,209,19.44Zm11.38,5a4.66,4.66,0,0,0,1.87-.38,4.87,4.87,0,0,0,1.51-1.05,4.46,4.46,0,0,0,1-1.59,6.17,6.17,0,0,0,0-4,4.55,4.55,0,0,0-1-1.59,4.87,4.87,0,0,0-1.51-1.05,4.87,4.87,0,0,0-3.77,0A5,5,0,0,0,217,15.83a4.55,4.55,0,0,0-1,1.59,6.17,6.17,0,0,0,0,4,4.46,4.46,0,0,0,1,1.59,5,5,0,0,0,1.49,1.05A4.64,4.64,0,0,0,220.41,24.48Z"/><path class="cls-1" d="M236.94,31.74a4.57,4.57,0,0,0,.65.28,13,13,0,0,0,1.35.43c.55.14,1.19.28,1.93.4a15,15,0,0,0,2.4.18,9.63,9.63,0,0,0,2.4-.28,4.45,4.45,0,0,0,3.13-2.64,6.6,6.6,0,0,0,.44-2.56V27.1a5.87,5.87,0,0,1-.66.57,7.15,7.15,0,0,1-1.21.72,10.18,10.18,0,0,1-1.76.65,8.27,8.27,0,0,1-2.26.28,11.75,11.75,0,0,1-4-.66,9,9,0,0,1-3.17-2,8.77,8.77,0,0,1-2-3.17,11.55,11.55,0,0,1-.73-4.25,10.74,10.74,0,0,1,.85-4.34,10,10,0,0,1,2.34-3.36,10.28,10.28,0,0,1,3.57-2.2,12.69,12.69,0,0,1,4.58-.79,12.53,12.53,0,0,1,5.14,1.05,9.78,9.78,0,0,1,3.89,3.07,9.44,9.44,0,0,1,1.47,3,15.91,15.91,0,0,1,.51,4.4v6a15,15,0,0,1-.89,5.43,9.63,9.63,0,0,1-6.19,5.93,15.08,15.08,0,0,1-4.7.7,22.13,22.13,0,0,1-3.27-.22,26.28,26.28,0,0,1-2.64-.52,16,16,0,0,1-1.9-.61,6.3,6.3,0,0,1-1-.46Zm3.11-12.46a4.33,4.33,0,0,0,1.29,3.43,4.84,4.84,0,0,0,3.3,1.13,4.59,4.59,0,0,0,3.29-1.25,4.39,4.39,0,0,0,1.31-3.31,4.59,4.59,0,0,0-1.31-3.37,4.47,4.47,0,0,0-3.29-1.31,4.66,4.66,0,0,0-1.85.36,4.3,4.3,0,0,0-1.45,1,4.74,4.74,0,0,0-1,1.49A4.79,4.79,0,0,0,240.05,19.28Z"/></g></g></svg>