<svg xmlns="http://www.w3.org/2000/svg" viewBox="0 0 301.55 72.51"><defs><style>.cls-1,.cls-2,.cls-3{fill:#fff;}.cls-1{stroke:#fff;stroke-miterlimit:10;}.cls-1,.cls-2,.cls-4,.cls-5{fill-rule:evenodd;}.cls-4{fill:#0193a4;}.cls-5{fill:#532f92;}</style></defs><g id="Camada_2" data-name="Camada 2"><g id="l"><path class="cls-1" d="M67.79,4.07V26.12A2.86,2.86,0,0,1,64.93,29H45.51L40,33.27v-7c0-.06,0-.12,0-.18v-22a2.86,2.86,0,0,1,2.86-2.86H64.93A2.86,2.86,0,0,1,67.79,4.07Z"/><path class="cls-2" d="M27.32,41.59H4.67a4,4,0,0,1-4-4v-26a4,4,0,0,1,4-4h26a4,4,0,0,1,4,4v26a1.36,1.36,0,0,1,0,.2v9.57Z"/><path class="cls-3" d="M30.63,8.24A3.37,3.37,0,0,1,34,11.61v26c0,.07,0,.14,0,.21V46l-6.44-5.06H4.67A3.37,3.37,0,0,1,1.3,37.57v-26A3.37,3.37,0,0,1,4.67,8.24h26m0-1.3h-26A4.68,4.68,0,0,0,0,11.61v26a4.68,4.68,0,0,0,4.67,4.67H27.09L33.18,47l2.1,1.66V37.84a2.65,2.65,0,0,0,0-.27v-26a4.68,4.68,0,0,0-4.67-4.67Z"/><path class="cls-4" d="M30.63,8.25h-26A3.36,3.36,0,0,0,1.3,11.61v26a3.37,3.37,0,0,0,3.37,3.37H27.54L34,46V37.78c0-.07,0-.13,0-.21v-26A3.36,3.36,0,0,0,30.63,8.25ZM18.53,16.1c.78-2.46,2.78-4,4.48-3.48s2.44,3,1.66,5.43-2.78,4-4.48,3.48S17.75,18.56,18.53,16.1ZM12.3,12.62c1.7-.54,3.7,1,4.48,3.48s0,4.89-1.66,5.43-3.7-1-4.48-3.48S10.6,13.16,12.3,12.62ZM4.76,23.84c-1.59-2-1.73-4.58-.33-5.67s3.83-.32,5.41,1.71,1.73,4.58.33,5.67S6.34,25.87,4.76,23.84ZM21.63,34.35A4,4,0,0,1,18.07,32c1.16-.74,4-1.94,4-3.88a2.28,2.28,0,0,0-2.16-2.39,2.22,2.22,0,0,0-2.16,1.76,2.23,2.23,0,0,0-2.11-1.82A2.28,2.28,0,0,0,13.41,28c0,1.94,2.74,3.22,3.88,4a4,4,0,0,1-3.63,2.26,4.25,4.25,0,0,1-4-4.46c.06-4.16,6.93-6.48,8.2-7.81,1.24,1.37,8,3.89,8,8A4.26,4.26,0,0,1,21.63,34.35Zm8.93-10.51c-1.59,2-4,2.8-5.42,1.71s-1.25-3.63.33-5.67,4-2.8,5.41-1.71S32.14,21.8,30.56,23.84Z"/><path class="cls-5" d="M39.39,26.39a.9.9,0,0,1,0-.18v-22A3.51,3.51,0,0,1,42.88.65H64.93a3.51,3.51,0,0,1,3.51,3.51V26.21a3.51,3.51,0,0,1-3.51,3.51H45.74l-6.35,5ZM59.11,20l-.21.49a1.83,1.83,0,0,0,.37,2.07,1.49,1.49,0,0,0,.84.26,1.52,1.52,0,0,0,1.25-.66A1.5,1.5,0,0,0,61.57,21l-.19-.72.74-.09a1.49,1.49,0,0,0,.67-2.72,1.16,1.16,0,0,0-.65-.19,2.16,2.16,0,0,0-1.45.63l-.39.39L49.71,11.06l.23-.5a1.81,1.81,0,0,0-.35-2.11,1.43,1.43,0,0,0-.85-.27,1.5,1.5,0,0,0-1.24.66,1.46,1.46,0,0,0-.21,1.22l.18.7-.72.1a1.51,1.51,0,0,0-1.07.66,1.49,1.49,0,0,0,.4,2.08,1.1,1.1,0,0,0,.64.18,2.15,2.15,0,0,0,1.42-.59l.38-.37Z"/><path class="cls-3" d="M64.93,1.3a2.86,2.86,0,0,1,2.86,2.86V26.21a2.86,2.86,0,0,1-2.86,2.86H45.51L40,33.36v-7c0-.06,0-.12,0-.18v-22A2.86,2.86,0,0,1,42.88,1.3H64.93M46.72,14.43a2.79,2.79,0,0,0,1.87-.77l9.71,6.62a2.46,2.46,0,0,0,.6,2.86,2.15,2.15,0,0,0,3.3-2.32,2.15,2.15,0,0,0,.95-3.91,1.74,1.74,0,0,0-1-.3,2.78,2.78,0,0,0-1.92.83l-9.69-6.61A2.44,2.44,0,0,0,50,7.91a2.19,2.19,0,0,0-1.22-.38,2.15,2.15,0,0,0-2.08,2.69,2.18,2.18,0,0,0-1.52.93,2.15,2.15,0,0,0,.57,3,1.8,1.8,0,0,0,1,.29M64.93,0H42.88a4.17,4.17,0,0,0-4.16,4.16V26.21a2.11,2.11,0,0,0,0,.25V36l2.1-1.65,5.12-4h19a4.16,4.16,0,0,0,4.16-4.16v-22A4.16,4.16,0,0,0,64.93,0ZM46.72,13.13a.57.57,0,0,1-.28-.06.86.86,0,0,1-.23-1.19.87.87,0,0,1,.62-.37l1.45-.2-.36-1.42a.84.84,0,0,1,.82-1.06.87.87,0,0,1,.49.16,1.22,1.22,0,0,1,.12,1.3l-.46,1,.91.62,9.69,6.61.9.62.76-.78a1.53,1.53,0,0,1,1-.44.61.61,0,0,1,.28.07.86.86,0,0,1,.36.55.87.87,0,0,1-.13.63.84.84,0,0,1-.6.37l-1.48.17.37,1.44a.86.86,0,0,1-.12.7.85.85,0,0,1-.71.37.83.83,0,0,1-.48-.15,1.26,1.26,0,0,1-.13-1.27l.41-1L59,19.2l-9.71-6.62L48.44,12l-.76.74a1.48,1.48,0,0,1-1,.4Z"/><path class="cls-3" d="M45.81,40a4.49,4.49,0,0,1,.24-1.54,3.14,3.14,0,0,1,.63-1.06,2.47,2.47,0,0,1,.89-.65,3.73,3.73,0,0,1,1-.3c.27-.06.59-.11.95-.16s.82-.1,1.37-.14,1.23-.08,2-.11,1.75,0,2.88,0a19,19,0,0,1,6,.83A10.79,10.79,0,0,1,65.75,39a7.64,7.64,0,0,1,2.1,3.11,10.54,10.54,0,0,1,.63,3.6,10.76,10.76,0,0,1-.69,3.92,7.7,7.7,0,0,1-2.14,3,10,10,0,0,1-3.73,2,18.43,18.43,0,0,1-5.42.7c-.49,0-1,0-1.41,0l-1.25-.08a9,9,0,0,1-1-.1,4.15,4.15,0,0,0-.51-.06v9H45.81Zm6.57,9.39,1,.15a20.19,20.19,0,0,0,2.32.1,10.75,10.75,0,0,0,3-.35,4.76,4.76,0,0,0,1.79-.9,2.85,2.85,0,0,0,.87-1.27,4.59,4.59,0,0,0,.22-1.4,5.24,5.24,0,0,0-.18-1.33,2.73,2.73,0,0,0-.79-1.27,4.51,4.51,0,0,0-1.75-1,9.94,9.94,0,0,0-3.09-.39c-.94,0-1.71,0-2.3.06s-.95.08-1.09.1Z"/><path class="cls-3" d="M69.53,53.76a10.38,10.38,0,0,1,.88-4.31A10.52,10.52,0,0,1,72.85,46a11.54,11.54,0,0,1,3.61-2.28,12.24,12.24,0,0,1,8.86,0A11.52,11.52,0,0,1,89,46a10.67,10.67,0,0,1,2.44,3.43,11,11,0,0,1,0,8.63A10.74,10.74,0,0,1,89,61.5a11.52,11.52,0,0,1-3.63,2.28,12.24,12.24,0,0,1-8.86,0,11.54,11.54,0,0,1-3.61-2.28,10.58,10.58,0,0,1-2.44-3.42A10.46,10.46,0,0,1,69.53,53.76Zm11.37,5a4.63,4.63,0,0,0,1.87-.38,4.92,4.92,0,0,0,1.52-1.05,4.46,4.46,0,0,0,1-1.59,6.17,6.17,0,0,0,0-4,4.55,4.55,0,0,0-1-1.59,4.92,4.92,0,0,0-1.52-1,4.87,4.87,0,0,0-3.77,0,5,5,0,0,0-1.49,1,4.55,4.55,0,0,0-1,1.59,6.17,6.17,0,0,0,0,4,4.46,4.46,0,0,0,1,1.59A5,5,0,0,0,79,58.42,4.67,4.67,0,0,0,80.9,58.8Z"/><path class="cls-3" d="M94.69,51.14a8.62,8.62,0,0,1,.67-3.51,7.3,7.3,0,0,1,1.83-2.58A7.75,7.75,0,0,1,100,43.46a11.33,11.33,0,0,1,3.63-.55,10.75,10.75,0,0,1,3.77.53,5.71,5.71,0,0,1,2,1.12,3.72,3.72,0,0,1,.57.85,2.62,2.62,0,0,1,.2,1.05,3.48,3.48,0,0,1-.18,1.13,4,4,0,0,1-.45.93,5.23,5.23,0,0,1-.5.68c-.16.19-.28.33-.36.41A11.09,11.09,0,0,0,107,49a7.47,7.47,0,0,0-2.13-.28,4,4,0,0,0-2.61.89,3.62,3.62,0,0,0-1.06,2.94V64h-6.5Z"/><path class="cls-3" d="M111.43,40.29a2.51,2.51,0,0,1,.93-2.22,4.19,4.19,0,0,1,2.46-.64,6.76,6.76,0,0,1,2,.26l1.13.34v5.45h4.64a3.72,3.72,0,0,1,2.58.72,2.88,2.88,0,0,1,.77,2.18,5.72,5.72,0,0,1-.33,2,8.53,8.53,0,0,1-.48,1.19h-7.18v6.33a3.31,3.31,0,0,0,.28,1.47,2.68,2.68,0,0,0,.71.87,2.3,2.3,0,0,0,1,.42,6.3,6.3,0,0,0,3.16-.24,7.5,7.5,0,0,0,1.33-.59l2.55,4.44a7.37,7.37,0,0,1-1,.73,11.39,11.39,0,0,1-1.66.76,16.63,16.63,0,0,1-2.17.63,12.39,12.39,0,0,1-2.55.26,8.33,8.33,0,0,1-5.92-2,6.94,6.94,0,0,1-2.14-5.34Z"/><path class="cls-3" d="M147.16,63.92a6.24,6.24,0,0,1-1.09.19l-2.11.22c-.85.08-1.82.14-2.91.2s-2.24.08-3.45.08a20.09,20.09,0,0,1-5.08-.54,9.42,9.42,0,0,1-3.23-1.48,5.06,5.06,0,0,1-1.69-2.15,7.12,7.12,0,0,1-.48-2.61q0-3.7,2.38-5.3c1.58-1.06,4.1-1.59,7.54-1.59.86,0,1.58,0,2.16,0a12.21,12.21,0,0,1,1.43.12,2.59,2.59,0,0,0-1.15-2.22,6.82,6.82,0,0,0-3.81-.81,15.65,15.65,0,0,0-2.2.14,11.33,11.33,0,0,0-1.61.35,6.83,6.83,0,0,0-1.07.4,5.28,5.28,0,0,0-.57.32L129.9,49a3.71,3.71,0,0,1-.48-.62,5.9,5.9,0,0,1-.45-.87,2.77,2.77,0,0,1-.2-1q0-3.51,7.18-3.51a21.33,21.33,0,0,1,4.4.43,9.57,9.57,0,0,1,3.56,1.45,7.06,7.06,0,0,1,2.38,2.72,9.21,9.21,0,0,1,.87,4.23Zm-6.49-8.42a7.35,7.35,0,0,0-1.07-.15c-.47,0-1.18-.06-2.12-.06a7.65,7.65,0,0,0-2,.21,3,3,0,0,0-1.19.54,1.77,1.77,0,0,0-.59.79,2.58,2.58,0,0,0-.16.92,2.68,2.68,0,0,0,.12.77,1.51,1.51,0,0,0,.53.73,3.44,3.44,0,0,0,1.21.54,8.18,8.18,0,0,0,2.13.22c.7,0,1.35,0,1.94-.06a7.56,7.56,0,0,0,1.17-.14Z"/><path class="cls-3" d="M150.59,37.18a2.5,2.5,0,0,1,.93-2.21,4.22,4.22,0,0,1,2.46-.65,7.12,7.12,0,0,1,2,.26c.59.18,1,.29,1.13.35V64h-6.49Z"/><path class="cls-3" d="M190.76,52.83a16.89,16.89,0,0,1-.53,4.48,9.24,9.24,0,0,1-1.49,3.19,9.77,9.77,0,0,1-3.91,3.06,13,13,0,0,1-5.28,1,12.05,12.05,0,0,1-4.42-.79,10.62,10.62,0,0,1-3.53-2.19,10.24,10.24,0,0,1-2.34-3.43,11.48,11.48,0,0,1-.84-4.44,12.17,12.17,0,0,1,.78-4.46,10.42,10.42,0,0,1,2.14-3.4,9.7,9.7,0,0,1,7-3,8.2,8.2,0,0,1,3.73.75,9.05,9.05,0,0,1,2.2,1.47v-8a2.5,2.5,0,0,1,.92-2.21,4.24,4.24,0,0,1,2.46-.65,6.94,6.94,0,0,1,2,.26l1.11.35Zm-11,5.81A4.57,4.57,0,0,0,183,57.35a4.76,4.76,0,0,0,1.31-3.55,5.5,5.5,0,0,0-.35-2,4.91,4.91,0,0,0-1-1.57,4.74,4.74,0,0,0-1.48-1.05,4.5,4.5,0,0,0-1.85-.38,4.36,4.36,0,0,0-3.33,1.39,5,5,0,0,0-1.31,3.57,4.81,4.81,0,0,0,1.31,3.51A4.45,4.45,0,0,0,179.71,58.64Z"/><path class="cls-3" d="M192.69,53.76a10.39,10.39,0,0,1,.89-4.31A10.52,10.52,0,0,1,196,46a11.54,11.54,0,0,1,3.61-2.28,12.21,12.21,0,0,1,8.85,0A11.3,11.3,0,0,1,212.11,46a10.59,10.59,0,0,1,0,15.48,11.3,11.3,0,0,1-3.63,2.28,12.21,12.21,0,0,1-8.85,0A11.54,11.54,0,0,1,196,61.5a10.58,10.58,0,0,1-2.44-3.42A10.47,10.47,0,0,1,192.69,53.76Zm11.38,5a4.66,4.66,0,0,0,1.87-.38,4.87,4.87,0,0,0,1.51-1.05,4.46,4.46,0,0,0,1-1.59,6,6,0,0,0,0-4,4.55,4.55,0,0,0-1-1.59,4.87,4.87,0,0,0-1.51-1,4.87,4.87,0,0,0-3.77,0,5,5,0,0,0-1.49,1,4.55,4.55,0,0,0-1,1.59,6.17,6.17,0,0,0,0,4,4.46,4.46,0,0,0,1,1.59,5,5,0,0,0,1.49,1.05A4.67,4.67,0,0,0,204.07,58.8Z"/><path class="cls-3" d="M227.18,40a4.49,4.49,0,0,1,.24-1.54,3.3,3.3,0,0,1,.62-1.06,2.56,2.56,0,0,1,.89-.65,3.9,3.9,0,0,1,1-.3,20.24,20.24,0,0,1,2.24-.3c1-.1,2.42-.15,4.33-.15a23.25,23.25,0,0,1,6.8.93,14.58,14.58,0,0,1,5.2,2.74,12.2,12.2,0,0,1,3.33,4.46A14.87,14.87,0,0,1,253,50.17a15.63,15.63,0,0,1-1.09,6,11.69,11.69,0,0,1-3.25,4.48,14.67,14.67,0,0,1-5.36,2.8,25.67,25.67,0,0,1-7.44,1q-4.56,0-6.56-.18c-1.33-.12-2.05-.2-2.15-.23Zm6.73,18.11c.16,0,.52.06,1.07.1s1.22.06,2,.06a13.6,13.6,0,0,0,3.67-.47,7.57,7.57,0,0,0,2.84-1.45,6.65,6.65,0,0,0,1.84-2.52,9.31,9.31,0,0,0,.64-3.63,9.84,9.84,0,0,0-.52-3.27,7,7,0,0,0-1.6-2.58,7.23,7.23,0,0,0-2.7-1.69A11.15,11.15,0,0,0,237.3,42c-1.05,0-1.86,0-2.42.07a6.76,6.76,0,0,0-1,.1Z"/><path class="cls-3" d="M254.84,53.76A10.46,10.46,0,0,1,258.17,46a11.42,11.42,0,0,1,3.61-2.28,12.21,12.21,0,0,1,8.85,0A11.3,11.3,0,0,1,274.26,46a10.59,10.59,0,0,1,0,15.48,11.3,11.3,0,0,1-3.63,2.28,12.21,12.21,0,0,1-8.85,0,11.42,11.42,0,0,1-3.61-2.28,10.41,10.41,0,0,1-3.33-7.74Zm11.38,5a4.66,4.66,0,0,0,1.87-.38,4.87,4.87,0,0,0,1.51-1.05,4.46,4.46,0,0,0,1-1.59,6.17,6.17,0,0,0,0-4,4.55,4.55,0,0,0-1-1.59,4.87,4.87,0,0,0-1.51-1,4.87,4.87,0,0,0-3.77,0,5,5,0,0,0-1.49,1,4.55,4.55,0,0,0-1,1.59,6.17,6.17,0,0,0,0,4,4.46,4.46,0,0,0,1,1.59,5,5,0,0,0,1.49,1.05A4.67,4.67,0,0,0,266.22,58.8Z"/><path class="cls-3" d="M282.75,66.06a3.6,3.6,0,0,0,.65.28,13,13,0,0,0,1.35.43,19,19,0,0,0,1.93.4,15,15,0,0,0,2.4.18,9.63,9.63,0,0,0,2.4-.28,4.45,4.45,0,0,0,3.13-2.64,6.6,6.6,0,0,0,.44-2.56v-.45a5.87,5.87,0,0,1-.66.57,6.77,6.77,0,0,1-1.21.72,9.88,9.88,0,0,1-1.76.65,8.27,8.27,0,0,1-2.26.28,11.8,11.8,0,0,1-4-.66A8.83,8.83,0,0,1,282,61a8.66,8.66,0,0,1-2.06-3.17,11.55,11.55,0,0,1-.73-4.25,10.91,10.91,0,0,1,.85-4.34,10,10,0,0,1,2.34-3.36A10.43,10.43,0,0,1,286,43.7a12.69,12.69,0,0,1,4.58-.79A12.5,12.5,0,0,1,295.68,44,9.78,9.78,0,0,1,299.57,47a9,9,0,0,1,1.47,3,15.91,15.91,0,0,1,.51,4.4v6a15,15,0,0,1-.89,5.42,9.63,9.63,0,0,1-6.19,5.93,15.08,15.08,0,0,1-4.7.7,22.13,22.13,0,0,1-3.27-.22,26.28,26.28,0,0,1-2.64-.52,14.11,14.11,0,0,1-1.89-.61,6.09,6.09,0,0,1-1-.46Zm3.11-12.46A4.33,4.33,0,0,0,287.15,57a4.85,4.85,0,0,0,3.31,1.13,4.58,4.58,0,0,0,3.28-1.25,4.35,4.35,0,0,0,1.31-3.31,4.55,4.55,0,0,0-1.31-3.37,4.46,4.46,0,0,0-3.28-1.31,4.67,4.67,0,0,0-1.86.36,4.4,4.4,0,0,0-1.45,1,4.74,4.74,0,0,0-.95,1.49A4.79,4.79,0,0,0,285.86,53.6Z"/></g></g></svg>